# AST/ASF file generated using VICON BodyLanguage
# -----------------------------------------------
:version 1.10
:name VICON
:units
  mass 1.0
  length 0.45
  angle deg
:documentation
   .ast/.asf automatically generated from VICON data using
   VICON BodyBuilder and BodyLanguage model FoxedUp or BRILLIANT.MOD
:root
   order TX TY TZ RX RY RZ
   axis XYZ
   position 0 0 0  
   orientation 0 0 0 
:bonedata
  begin
     id 1 
     name lhipjoint
     direction 0.54267 -0.795011 0.271047 
     length 2.39899 
     axis 0 0 0  XYZ
  end
  begin
     id 2 
     name lfemur
     direction 0.34202 -0.939693 0  
     length 7.49701  
     axis 0 0 20  XYZ
    dof rx ry rz
    limits (-160.0 20.0)
           (-70.0 70.0)
           (-60.0 70.0)
  end
  begin
     id 3 
     name ltibia
     direction 0.34202 -0.939693 0   
     length 8.1668   
     axis 0 0 20   XYZ
    dof rx
    limits (-10.0 170.0)
  end
  begin
     id 4 
     name lfoot
     direction 0.0736283 -0.202292 0.976554   
     length 2.13544   
     axis -90 7.62852e-016 20   XYZ
    dof rx rz
    limits (-45.0 90.0)
           (-70.0 20.0)
  end
  begin
     id 5 
     name ltoes
     direction 1.53557e-011 -4.22024e-011 1   
     length 1.07411   
     axis -90 7.62852e-016 20   XYZ
    dof rx
    limits (-90.0 20.0)
  end
  begin
     id 6 
     name rhipjoint
     direction -0.538061 -0.797813 0.272002   
     length 2.39057  
     axis 0 0 0  XYZ 
  end
  begin
     id 7 
     name rfemur
     direction -0.34202 -0.939693 0   
     length 7.50152   
     axis 0 0 -20   XYZ
    dof rx ry rz
    limits (-160.0 20.0)
           (-70.0 70.0)
           (-70.0 60.0)
  end
  begin
     id 8 
     name rtibia
     direction -0.34202 -0.939693 0   
     length 8.05793   
     axis 0 0 -20   XYZ
    dof rx
    limits (-10.0 170.0)
 end
 begin
     id 9 
     name rfoot
     direction -0.0765195 -0.210236 0.974652   
     length 2.28698  
     axis -90 -7.62852e-016 -20   XYZ
    dof rx rz
    limits (-45.0 90.0)
           (-20.0 70.0)
  end
  begin
     id 10 
     name rtoes
     direction -1.53542e-011 -4.21847e-011 1   
     length 1.14762   
     axis -90 -7.62852e-016 -20   XYZ
    dof rx
    limits (-90.0 20.0)
  end
  begin
     id 11 
     name lowerback
     direction -0.0217239 0.996592 -0.0795765   
     length 2.08176   
     axis 0 0 0   XYZ
    dof rx ry rz
    limits (-20.0 45.0)
           (-30.0 30.0)
           (-30.0 30.0)
  end
  begin
     id 12 
     name upperback
     direction -0.00563773 0.999651 -0.0258155   
     length 2.08898   
     axis 0 0 0   XYZ
    dof rx ry rz
    limits (-20.0 45.0)
           (-30.0 30.0)
           (-30.0 30.0)
  end
  begin
     id 13 
     name thorax
     direction 0.0032706 0.999923 0.0119599   
     length 2.0968   
     axis 0 0 0   XYZ
    dof rx ry rz
    limits (-20.0 45.0)
           (-30.0 30.0)
           (-30.0 30.0)
  end
  begin
     id 14 
     name lowerneck
     direction -0.0285886 0.99568 0.0883427   
     length 1.81272   
     axis 0 0 0   XYZ
    dof rx ry rz
    limits (-20.0 45.0)
           (-30.0 30.0)
           (-30.0 30.0)
  end
  begin
     id 15 
     name upperneck
     direction 0.0807535 0.97985 -0.18268   
     length 1.82518   
     axis 0 0 0   XYZ
    dof rx ry rz
    limits (-20.0 45.0)
           (-30.0 30.0)
           (-30.0 30.0)
  end
  begin
     id 16
     name head
     direction 0.0236605 0.997053 -0.0729767  
     length 1.84443  
     axis 0 0 0   XYZ
    dof rx ry rz
    limits (-20.0 45.0)
           (-30.0 30.0)
           (-30.0 30.0)
  end
  begin
     id 17 
     name lclavicle
     direction 0.918986 0.39378 -0.0200683  
     length 3.27822  
     axis 0 0 0   XYZ
    dof ry rz
    limits (-20.0 10.0)
           (0.0 20.0)
  end
  begin
     id 18 
     name lhumerus
     direction 1 -4.4897e-011 2.09544e-027   
     length 5.5568   
     axis 180 -30 -90   XYZ
    dof rx ry rz
    limits (-60.0 90.0)
           (-90.0 90.0)
           (-90.0 90.0)
  end
  begin
     id 19
     name lradius
     direction 1 -4.48957e-011 -1.27696e-026   
     length 3.63979   
     axis 180 -30 -90   XYZ
    dof rx
    limits (-10.0 170.0)
  end
  begin
     id 20
     name lwrist
     direction 1 -4.49001e-011 -1.49001e-026   
     length 1.8199   
     axis 9.0955e-015 90 90   XYZ
    dof ry
    limits (-180.0 0.0)
 end
  begin
     id 21 
     name lhand
     direction 1 -4.48709e-011 -2.9758e-026   
     length 0.569419   
     axis 1.90115e-014 90 90   XYZ
    dof rx rz
    limits (-90.0 90.0)
           (-45.0 45.0)
  end
  begin
     id 22 
     name lfingers
     direction 1 -4.49175e-011 -5.96505e-026   
     length 0.45908   
     axis 3.80223e-014 90 90   XYZ
    dof rx
    limits (0.0 90.0)
  end
  begin
     id 23
     name lthumb
     direction 0.707107 -6.34864e-011 0.707107   
     length 0.65915   
     axis -90 45 -3.84942e-014   XYZ
    dof rx rz
    limits (-45.0 45.0)
           (-45.0 45.0)
  end
  begin
     id 24 
     name rclavicle
     direction -0.911913 0.396426 -0.106115   
     length 3.46301  
     axis 0 0 0   XYZ 
    dof ry rz
    limits (-10.0 20.0)
           (-20.0 0.0)
  end
  begin
     id 25 
     name rhumerus
     direction -1 -4.48965e-011 7.78516e-028  
     length 5.34339   
     axis 180 30 90   XYZ
    dof rx ry rz
    limits (-90.0 60.0)
           (-90.0 90.0)
           (-90.0 90.0)
  end
  begin
     id 26 
     name rradius
     direction -1 -4.48948e-011 -5.79823e-027   
     length 3.65101   
     axis 180 30 90   XYZ
    dof rx
    limits (-10.0 170.0)
  end
  begin
     id 27 
     name rwrist
     direction -1 -4.48995e-011 -1.48996e-026   
     length 1.8255   
     axis 9.0955e-015 -90 -90   XYZ
    dof ry
    limits (-180.0 0.0)
  end
  begin
     id 28
     name rhand
     direction -1 -4.48957e-011 -2.97937e-026   
     length 0.694249   
     axis 1.90115e-014 -90 -90   XYZ
    dof rx rz
    limits (-90.0 90.0)
           (-45.0 45.0)
  end
  begin
     id 29
     name rfingers
     direction -1 -4.4898e-011 -5.95943e-026   
     length 0.559721   
     axis 3.80223e-014 -90 -90   XYZ
    dof rx
    limits (0.0 90.0)
  end
  begin
     id 30
     name rthumb
     direction -0.707107 -6.34969e-011 0.707107   
     length 0.803651   
     axis -90 -45 3.84942e-014   XYZ
    dof rx rz
    limits (-45.0 45.0)
           (-45.0 45.0)
  end
:hierarchy
  begin
    root lhipjoint rhipjoint lowerback
    lhipjoint lfemur
    lfemur ltibia
    ltibia lfoot
    lfoot ltoes
    rhipjoint rfemur
    rfemur rtibia
    rtibia rfoot
    rfoot rtoes
    lowerback upperback
    upperback thorax
    thorax lowerneck lclavicle rclavicle
    lowerneck upperneck
    upperneck head
    lclavicle lhumerus
    lhumerus lradius
    lradius lwrist
    lwrist lhand lthumb
    lhand lfingers
    rclavicle rhumerus
    rhumerus rradius
    rradius rwrist
    rwrist rhand rthumb
    rhand rfingers
  end

#!OML:ASF H:\Terrain\Walking\May29\JustinRory\rory.ASF
:FULLY-SPECIFIED
:DEGREES
48
root 12.2496 18.1682 -12.2112 -3.7023 6.61375 0.800902
lowerback 4.17011 2.09535 -0.440317
upperback 2.10943 2.7848 1.12906
thorax -0.247912 1.38605 1.28239
lowerneck -13.7166 -6.2355 -6.08636
upperneck 28.4252 -7.56889 0.888126
head 11.8624 -3.92226 0.284264
rclavicle -2.25621e-014 2.50469e-014
rhumerus -10.3735 -11.0634 -85.1574
rradius 41.3663
rwrist -5.41452
rhand -19.586 38.0937
rfingers 7.12502
rthumb 6.7395 8.22097
lclavicle -2.25621e-014 2.50469e-014
lhumerus -30.1861 0.944945 88.9215
lradius 40.2347
lwrist 13.4231
lhand -27.8228 21.5978
lfingers 7.12502
lthumb -1.21474 51.5741
rfemur -13.4539 4.11875 22.0849
rtibia 30.2133
rfoot -7.77516 -9.64545
rtoes 1.18224
lfemur -18.8397 0.475371 -16.4557
ltibia 59.4757
lfoot -6.36965 0.934147
ltoes -12.4626
49
root 12.2425 18.1653 -12.1213 -3.5462 6.59943 0.685272
lowerback 4.28166 2.17028 -0.232157
upperback 1.98236 2.89279 1.06664
thorax -0.429829 1.44238 1.08964
lowerneck -13.5374 -6.34767 -6.29327
upperneck 28.4747 -7.70748 0.955777
head 11.8655 -3.99924 0.327531
rclavicle 6.93013e-014 -7.15625e-015
rhumerus -9.96835 -10.7088 -85.3613
rradius 41.8121
rwrist -5.50455
rhand -19.0186 37.899
rfingers 7.12502
rthumb 7.28721 8.04446
lclavicle 6.93013e-014 -7.15625e-015
lhumerus -30.6174 1.17411 88.5656
lradius 39.5868
lwrist 13.4805
lhand -28.8883 19.5946
lfingers 7.12502
lthumb -2.24386 49.5626
rfemur -13.3253 4.12555 22.2816
rtibia 30.0569
rfoot -9.70455 -9.76437
rtoes 8.22489
lfemur -19.692 0.44026 -16.3232
ltibia 58.4232
lfoot -7.49837 1.25114
ltoes -10.1104
50
root 12.2383 18.1663 -12.0297 -3.34014 6.69779 0.647511
lowerback 4.31958 2.20451 -0.124038
upperback 1.89225 2.94283 1.01979
thorax -0.536599 1.46844 0.975107
lowerneck -13.2188 -6.49679 -6.73298
upperneck 28.233 -7.9085 1.24234
head 11.7522 -4.1035 0.488984
rclavicle 1.76421e-014 -7.15625e-015
rhumerus -9.462 -10.1615 -85.5757
rradius 42.255
rwrist -6.44585
rhand -18.7328 37.4583
rfingers 7.12502
rthumb 7.56305 7.61351
lclavicle 1.76421e-014 -7.15625e-015
lhumerus -31.3939 2.16393 88.1714
lradius 39.4177
lwrist 12.6909
lhand -28.8295 18.2565
lfingers 7.12502
lthumb -2.18708 48.225
rfemur -13.1742 4.00587 22.3854
rtibia 29.937
rfoot -10.6386 -9.86268
rtoes 10.9294
lfemur -20.4993 0.246763 -16.3102
ltibia 57.1908
lfoot -8.08063 1.66727
ltoes -12.9209
51
root 12.2355 18.1732 -11.9305 -3.15268 6.73487 0.577221
lowerback 4.2474 2.29706 -0.00811917
upperback 1.88127 3.06982 0.959376
thorax -0.500605 1.53255 0.845436
lowerneck -13.0347 -6.65917 -6.87433
upperneck 28.0002 -8.1429 1.34736
head 11.6482 -4.21244 0.525253
rclavicle -1.676e-014 -7.95139e-015
rhumerus -8.67546 -10.0302 -85.8689
rradius 42.4911
rwrist -7.85531
rhand -18.1407 37.0534
rfingers 7.12502
rthumb 8.13452 7.23001
lclavicle -1.676e-014 -7.95139e-015
lhumerus -31.7396 3.18496 87.7353
lradius 38.9012
lwrist 11.8005
lhand -27.7728 20.8353
lfingers 7.12502
lthumb -1.16643 50.8118
rfemur -12.9633 3.90224 22.5569
rtibia 29.8528
rfoot -10.8493 -10.0174
rtoes 10.8264
lfemur -21.1397 0.0263731 -16.2638
ltibia 55.7565
lfoot -8.67806 1.74687
ltoes -14.4184
52
root 12.2379 18.183 -11.8363 -3.09509 6.94663 0.446559
lowerback 4.29368 2.23093 0.225421
upperback 1.82287 2.99023 0.824755
thorax -0.566023 1.49415 0.577868
lowerneck -12.7206 -6.62794 -6.5069
upperneck 27.9071 -8.13736 1.1023
head 11.5165 -4.20611 0.390083
rclavicle -9.38015e-015 7.15625e-015
rhumerus -8.03824 -9.91594 -86.3907
rradius 42.7059
rwrist -9.00119
rhand -17.357 36.8228
rfingers 7.12502
rthumb 8.89084 7.0301
lclavicle -9.38015e-015 7.15625e-015
lhumerus -32.1177 3.85492 87.1289
lradius 38.1475
lwrist 12.2432
lhand -27.2464 22.2921
lfingers 7.12502
lthumb -0.658064 52.2708
rfemur -12.6297 3.60488 22.7784
rtibia 29.7536
rfoot -10.9298 -10.1859
rtoes 9.80257
lfemur -21.6446 -0.432205 -16.1377
ltibia 54.1542
lfoot -9.03155 1.59371
ltoes -12.2944
53
root 12.2373 18.191 -11.7498 -2.96962 7.16168 0.365125
lowerback 4.4739 2.15935 0.39269
upperback 1.89595 2.90165 0.753417
thorax -0.578726 1.45072 0.410266
lowerneck -13.2911 -6.68027 -6.50303
upperneck 28.1055 -8.15252 1.01636
head 11.7051 -4.21581 0.331663
rclavicle 2.96935e-014 1.07344e-014
rhumerus -7.1057 -9.49509 -86.7033
rradius 42.9164
rwrist -10.1775
rhand -16.4828 36.7113
rfingers 7.12502
rthumb 9.73437 6.95626
lclavicle 2.96935e-014 1.07344e-014
lhumerus -32.332 4.43202 86.6621
lradius 37.6819
lwrist 13.289
lhand -25.609 23.0466
lfingers 7.12502
lthumb 0.923365 53.0243
rfemur -12.361 3.44751 22.9244
rtibia 29.586
rfoot -11.0925 -10.3298
rtoes 9.13617
lfemur -22.2056 -0.839717 -16.0398
ltibia 52.4066
lfoot -9.13626 1.51675
ltoes -11.6833
54
root 12.2327 18.205 -11.6567 -2.66947 6.98581 0.368681
lowerback 4.3642 2.50238 0.435713
upperback 1.83517 3.35984 0.763282
thorax -0.58016 1.67981 0.377484
lowerneck -13.208 -7.04902 -7.03974
upperneck 28.0964 -8.61065 1.23307
head 11.7482 -4.44952 0.431948
rclavicle 4.92241e-014 1.23246e-014
rhumerus -6.60521 -9.56805 -86.3424
rradius 43.2702
rwrist -11.5147
rhand -15.1411 36.7424
rfingers 7.12502
rthumb 11.0287 7.05212
lclavicle 4.92241e-014 1.23246e-014
lhumerus -32.7588 3.99817 86.6798
lradius 37.3106
lwrist 13.787
lhand -28.8756 18.0967
lfingers 7.12502
lthumb -2.23161 48.0648
rfemur -12.2295 3.61437 22.9874
rtibia 29.3585
rfoot -11.2614 -10.2983
rtoes 8.78383
lfemur -22.7426 -0.92712 -15.9944
ltibia 50.5512
lfoot -9.29802 1.74031
ltoes -11.4828
55
root 12.2309 18.2256 -11.5579 -2.50328 6.66413 0.548684
lowerback 4.22591 2.82519 0.250661
upperback 1.84419 3.7814 0.760773
thorax -0.507238 1.88988 0.465315
lowerneck -12.8816 -7.33332 -7.61057
upperneck 27.9638 -8.96533 1.48002
head 11.6965 -4.64024 0.574895
rclavicle -1.60519e-014 -2.38542e-015
rhumerus -6.14427 -9.79654 -86.248
rradius 43.6921
rwrist -12.5073
rhand -13.7706 36.9954
rfingers 7.12502
rthumb 12.3503 7.38023
lclavicle -1.60519e-014 -2.38542e-015
lhumerus -32.9768 3.6433 86.6107
lradius 36.5673
lwrist 13.8073
lhand -29.5403 19.8378
lfingers 7.12502
lthumb -2.87356 49.7982
rfemur -11.8976 3.86106 22.8663
rtibia 29.0989
rfoot -11.3212 -10.2759
rtoes 7.81672
lfemur -23.0079 -0.996022 -16.132
ltibia 48.604
lfoot -9.55622 1.98178
ltoes -12.181
56
root 12.2341 18.2372 -11.4641 -2.38392 6.62924 0.670165
lowerback 4.29077 2.98123 0.247294
upperback 1.66564 3.98928 0.627249
thorax -0.718632 1.99375 0.311309
lowerneck -12.1513 -7.47828 -7.97514
upperneck 27.821 -9.22977 1.79515
head 11.5482 -4.76782 0.739708
rclavicle -2.74696e-014 8.74653e-015
rhumerus -6.17072 -10.0478 -86.4364
rradius 44.2429
rwrist -13.391
rhand -13.0535 37.3136
rfingers 7.12502
rthumb 13.0416 7.74126
lclavicle -2.74696e-014 8.74653e-015
lhumerus -33.4747 3.65698 86.1369
lradius 35.8989
lwrist 13.6917
lhand -28.5286 22.2401
lfingers 7.12502
lthumb -1.89642 52.2114
rfemur -11.524 3.92023 22.7793
rtibia 28.7982
rfoot -11.3509 -10.3671
rtoes 7.17837
lfemur -23.2177 -1.26623 -16.2507
ltibia 46.5615
lfoot -9.83145 1.90972
ltoes -13.88
57
root 12.2363 18.2485 -11.378 -2.10848 6.69898 0.355764
lowerback 4.256 3.13796 0.697775
upperback 1.41086 4.21749 0.591764
thorax -0.926458 2.10758 0.00732074
lowerneck -11.4419 -7.64623 -8.19335
upperneck 27.5579 -9.50213 1.91434
head 11.3416 -4.90818 0.810215
rclavicle -3.18428e-014 -9.54166e-015
rhumerus -6.23066 -10.308 -86.4796
rradius 44.7801
rwrist -14.0857
rhand -11.1432 36.5279
rfingers 7.12502
rthumb 14.8825 7.08249
lclavicle -3.18428e-014 -9.54166e-015
lhumerus -34.497 4.11488 85.7982
lradius 35.9344
lwrist 13.1048
lhand -26.5544 23.3126
lfingers 7.12502
lthumb 0.010287 53.2924
rfemur -11.3152 3.93105 23.1814
rtibia 28.4593
rfoot -11.2556 -10.4921
rtoes 7.58682
lfemur -23.6159 -1.64075 -15.8636
ltibia 44.4725
lfoot -9.82872 1.72698
ltoes -13.9754
58
root 12.2336 18.2708 -11.2899 -1.83781 6.81101 0.127485
lowerback 4.11109 3.22214 0.895767
upperback 1.43507 4.33623 0.640961
thorax -0.809502 2.16761 -0.0477638
lowerneck -11.5923 -7.83111 -8.34778
upperneck 27.3897 -9.70228 1.88513
head 11.3278 -5.01459 0.790735
rclavicle -2.16675e-014 7.95139e-016
rhumerus -5.58561 -10.1037 -86.4883
rradius 44.9171
rwrist -14.6149
rhand -9.03163 34.8714
rfingers 7.12502
rthumb 16.916 5.58811
lclavicle -2.16675e-014 7.95139e-016
lhumerus -35.7725 6.22365 85.5243
lradius 36.3796
lwrist 11.2301
lhand -26.6939 24.1807
lfingers 7.12502
lthumb -0.124485 54.1604
rfemur -11.0872 4.10774 23.5128
rtibia 28.1353
rfoot -11.2004 -10.8648
rtoes 7.73773
lfemur -23.986 -2.19715 -15.5031
ltibia 42.3155
lfoot -9.60244 1.6921
ltoes -13.2041
59
root 12.2383 18.2874 -11.1972 -1.63329 6.94324 0.150357
lowerback 4.01174 3.29351 0.942774
upperback 1.48812 4.43065 0.585563
thorax -0.691151 2.21571 -0.125991
lowerneck -11.8736 -8.02269 -8.59863
upperneck 27.4443 -9.94598 2.06677
head 11.4467 -5.12293 0.846639
rclavicle -2.8302e-014 3.18055e-015
rhumerus -4.91734 -9.82618 -86.3918
rradius 44.8332
rwrist -15.6327
rhand -8.67104 34.128
rfingers 7.12502
rthumb 17.2631 4.87476
lclavicle -2.8302e-014 3.18055e-015
lhumerus -35.8745 7.31293 85.0548
lradius 35.6289
lwrist 10.3825
lhand -27.4839 19.9594
lfingers 7.12502
lthumb -0.887418 49.9373
rfemur -10.8271 4.15834 23.5018
rtibia 27.7755
rfoot -11.4591 -11.1122
rtoes 8.42045
lfemur -24.1844 -2.87535 -15.4612
ltibia 40.1392
lfoot -9.37666 1.91471
ltoes -14.3054
60
root 12.2499 18.298 -11.1084 -1.36472 6.92218 0.43432
lowerback 3.87548 3.40189 0.753018
upperback 1.4542 4.5654 0.463824
thorax -0.653782 2.28299 -0.143338
lowerneck -11.8714 -8.15632 -8.76182
upperneck 27.4829 -10.0912 2.04276
head 11.4805 -5.20688 0.841054
rclavicle 2.42269e-015 9.93923e-016
rhumerus -4.58043 -9.7132 -86.2844
rradius 44.9667
rwrist -16.7465
rhand -7.32621 33.5799
rfingers 7.12502
rthumb 18.5571 4.44507
lclavicle 2.42269e-015 9.93923e-016
lhumerus -36.2729 7.9396 84.5181
lradius 35.083
lwrist 9.86559
lhand -28.8437 14.3529
lfingers 7.12502
lthumb -2.20077 44.3213
rfemur -10.5874 4.09356 23.1532
rtibia 27.3275
rfoot -11.6174 -10.936
rtoes 9.30563
lfemur -24.2747 -3.60983 -15.6987
ltibia 37.9586
lfoot -9.24196 2.08002
ltoes -15.1444
61
root 12.2562 18.3125 -11.0193 -1.10518 6.881 0.597838
lowerback 3.65289 3.45417 0.526639
upperback 1.41734 4.62498 0.425959
thorax -0.58188 2.31257 -0.0459809
lowerneck -11.5438 -8.21663 -8.7578
upperneck 27.1461 -10.1437 1.86112
head 11.2791 -5.2568 0.786782
rclavicle 1.3244e-014 -3.97569e-016
rhumerus -4.49994 -9.23256 -86.2911
rradius 45.2381
rwrist -17.3921
rhand -6.11099 33.1566
rfingers 7.12502
rthumb 19.7257 4.13742
lclavicle 1.3244e-014 -3.97569e-016
lhumerus -36.0317 7.32442 84.0696
lradius 34.1563
lwrist 10.7932
lhand -26.9922 22.5774
lfingers 7.12502
lthumb -0.412572 52.5568
rfemur -10.2856 4.18402 22.9851
rtibia 26.8365
rfoot -11.575 -10.8707
rtoes 9.46521
lfemur -24.3412 -4.45798 -15.6861
ltibia 35.808
lfoot -9.11458 1.95729
ltoes -13.374
62
root 12.2572 18.3262 -10.9243 -1.12779 6.98321 0.202285
lowerback 3.478 3.39059 0.695983
upperback 1.53278 4.54513 0.632515
thorax -0.369965 2.27366 0.0901607
lowerneck -11.2992 -8.25848 -8.90686
upperneck 26.7108 -10.1733 1.84483
head 11.0767 -5.29033 0.81781
rclavicle -3.639e-014 7.55382e-015
rhumerus -4.30795 -8.17019 -86.2285
rradius 45.3858
rwrist -18.0117
rhand -5.96991 33.088
rfingers 7.12502
rthumb 19.8613 4.08284
lclavicle -3.639e-014 7.55382e-015
lhumerus -36.0175 7.42042 83.7829
lradius 33.5662
lwrist 11.1758
lhand -28.1324 23.677
lfingers 7.12502
lthumb -1.51383 53.6514
rfemur -9.71794 4.33963 23.4951
rtibia 26.36
rfoot -11.6419 -11.1517
rtoes 9.9904
lfemur -24.1917 -5.27229 -15.064
ltibia 33.7407
lfoot -8.76112 1.74571
ltoes -11.652
